<?xml version="1.0" encoding="UTF-8"?>
<svg version="1.1" xmlns="http://www.w3.org/2000/svg" width="512" height="512">
<path d="M0 0 C168.96 0 337.92 0 512 0 C512 168.96 512 337.92 512 512 C343.04 512 174.08 512 0 512 C0 343.04 0 174.08 0 0 Z " fill="#FEFEFE" transform="translate(0,0)"/>
<path d="M0 0 C1.31532715 0.00410889 1.31532715 0.00410889 2.65722656 0.00830078 C11.99562931 0.15553547 21.01883331 1.5532909 29.94946289 4.35571289 C36.20402989 5.91149962 42.61188804 5.5381547 49.01171875 5.47265625 C50.400778 5.46637356 51.78984233 5.46113757 53.1789093 5.45689392 C56.81511855 5.44366918 60.45115583 5.41927046 64.08728027 5.39154053 C69.91635254 5.3482118 75.74547173 5.3186281 81.57465553 5.2954998 C83.60262593 5.28532726 85.63045483 5.268278 87.65837097 5.25050354 C89.51103325 5.24070717 89.51103325 5.24070717 91.40112305 5.23071289 C92.48507858 5.22245987 93.56903412 5.21420685 94.68583679 5.20570374 C97.45662483 5.30638199 99.92471918 5.71687395 102.625 6.3125 C106.83107185 6.53229736 111.03872914 6.49763677 115.25 6.5 C116.37535156 6.51224609 117.50070313 6.52449219 118.66015625 6.53710938 C125.02823283 6.54815228 130.91764521 6.04689859 137.15478516 4.77758789 C147.72354682 2.78771924 158.82893391 3.83587741 168.625 8.3125 C170.33435712 9.59064467 172.00353622 10.92454799 173.625 12.3125 C174.36621094 12.86550781 175.10742188 13.41851562 175.87109375 13.98828125 C188.8678972 23.69534122 188.8678972 23.69534122 190.33886719 32.04956055 C191.28564282 39.53732786 190.48286706 46.72146257 188.9375 54.0625 C188.75743408 54.93156982 188.57736816 55.80063965 188.3918457 56.69604492 C185.17569775 71.57330514 178.9235091 85.14485617 171.875 98.5625 C169.67433831 102.86313952 168.45445979 107.16308821 167.3984375 111.8671875 C166.55245986 114.54184409 165.31417171 116.09819719 163.625 118.3125 C162.74070597 120.61267846 162.74070597 120.61267846 162.125 123.0625 C161.28057001 126.17884878 160.33583348 128.99229498 159.06640625 131.9765625 C157.1927472 136.92646498 157.0497241 141.68660557 157.0625 146.9375 C157.0634668 147.9059082 157.06443359 148.87431641 157.06542969 149.87207031 C157.27591846 158.53094415 159.4789647 164.68094974 163.625 172.3125 C168.02664777 180.98882492 168.67705832 189.70199161 169.39135742 199.27294922 C169.56932201 201.29969139 169.56932201 201.29969139 170.13916016 203.1550293 C171.23291644 208.01207666 170.81088116 213.17901825 170.81030273 218.14477539 C170.81246031 220.21197012 170.83054979 222.27860478 170.84960938 224.34570312 C170.88561778 232.83540165 170.13623412 240.94686877 168.625 249.3125 C168.41703518 250.72827808 168.21432946 252.14485033 168.01953125 253.5625 C164.84693462 274.00339102 157.02312563 293.94343627 147.625 312.3125 C147.233125 313.09625 146.84125 313.88 146.4375 314.6875 C146.169375 315.22375 145.90125 315.76 145.625 316.3125 C144.965 316.3125 144.305 316.3125 143.625 316.3125 C143.50116943 316.90200439 143.37733887 317.49150879 143.24975586 318.09887695 C142.25908615 321.60899898 140.16552744 324.475692 138.1875 327.5 C137.77951172 328.14130859 137.37152344 328.78261719 136.95117188 329.44335938 C133.88276981 334.1836151 133.88276981 334.1836151 131.625 335.3125 C133.33667044 326.89678698 135.66895861 318.65901312 138.62109375 310.58984375 C140.03255637 305.98199496 140.83506453 301.30113365 141.6875 296.5625 C142.02983576 294.67138127 142.37475987 292.78072869 142.72265625 290.890625 C142.87226807 290.05950195 143.02187988 289.22837891 143.17602539 288.37207031 C143.625 286.3125 143.625 286.3125 144.625 284.3125 C147.07922398 272.63914461 147.91554622 260.71408502 147.9375 248.8125 C147.94273682 247.75732178 147.94797363 246.70214355 147.95336914 245.61499023 C147.90576575 240.40178653 147.52790724 236.22518481 145.625 231.3125 C145.625 229.9925 145.625 228.6725 145.625 227.3125 C144.965 227.3125 144.305 227.3125 143.625 227.3125 C142.328125 225.50830078 142.328125 225.50830078 140.875 223.0078125 C140.3490625 222.11449219 139.823125 221.22117187 139.28125 220.30078125 C138.46140625 218.88345703 138.46140625 218.88345703 137.625 217.4375 C136.54425298 215.58442669 135.46103196 213.73279341 134.375 211.8828125 C133.89546875 211.05539551 133.4159375 210.22797852 132.921875 209.37548828 C131.66128765 207.20057893 131.66128765 207.20057893 129.625 205.3125 C129.05979997 202.65712628 128.88711802 200.02105287 128.625 197.3125 C127.965 197.3125 127.305 197.3125 126.625 197.3125 C126.27566406 196.16910156 125.92632812 195.02570313 125.56640625 193.84765625 C125.10693537 192.35672012 124.64729099 190.86583745 124.1875 189.375 C123.84235352 188.24288086 123.84235352 188.24288086 123.49023438 187.08789062 C122.59498264 183.41041548 122.59498264 183.41041548 120.625 180.3125 C120.33971973 176.1949547 120.39299878 172.06372066 120.375 167.9375 C120.3440625 166.22240234 120.3440625 166.22240234 120.3125 164.47265625 C120.22408383 145.04320317 129.27717233 131.31081429 140.35693359 116.12548828 C141.77184273 114.15765893 141.77184273 114.15765893 143.36328125 111.30859375 C143.77964844 110.64988281 144.19601563 109.99117188 144.625 109.3125 C145.285 109.3125 145.945 109.3125 146.625 109.3125 C146.810625 108.1678125 146.810625 108.1678125 147 107 C147.625 104.3125 147.625 104.3125 149.625 101.3125 C155.47138817 84.1630947 157.82154683 66.00582694 150.59375 48.8671875 C146.26405337 40.23704894 139.49260084 34.64100577 131.5625 29.4375 C130.98508057 29.0559375 130.40766113 28.674375 129.81274414 28.28125 C123.4354643 24.26167501 117.33745463 23.02598227 109.89453125 23.00390625 C108.37173967 22.98080381 106.84895338 22.95735073 105.32617188 22.93359375 C104.53009521 22.92440918 103.73401855 22.91522461 102.91381836 22.90576172 C87.23003277 22.71093208 71.70379037 21.82481724 56.08789062 20.39868164 C54.62502577 20.2655044 53.16213561 20.13260478 51.69921875 20 C50.99820038 19.9363475 50.29718201 19.87269501 49.57492065 19.80711365 C43.53247957 19.27338362 37.49872184 19.00477359 31.4375 18.8125 C15.25724992 18.23868932 -3.94222123 16.58087955 -16.375 5.3125 C-16.045 4.3225 -15.715 3.3325 -15.375 2.3125 C-10.36222049 -0.05157109 -5.42781232 -0.03432691 0 0 Z " fill="#3578FE" transform="translate(75.375,124.6875)"/>
<path d="M0 0 C-2.53288786 6.2432263 -8.85890383 9.55197694 -14.75390625 12.26953125 C-23.62268372 15.6379005 -31.9842365 17.00644187 -41.4375 17.375 C-47.94388075 17.63947044 -54.08391589 18.45077376 -60.4375 19.875 C-61.22874268 20.05184326 -62.01998535 20.22868652 -62.83520508 20.41088867 C-63.62822021 20.5885376 -64.42123535 20.76618652 -65.23828125 20.94921875 C-77.42451235 23.67740534 -89.32476073 25.14538237 -101.8125 25.5 C-110.91219962 25.76120268 -119.22553264 26.39799705 -128 29 C-128.99 29.27714844 -129.98 29.55429688 -131 29.83984375 C-137.93965764 32.03677341 -144.39005345 35.23182841 -148.015625 41.85546875 C-148.87477076 44.21811958 -149.45136325 46.54468121 -150 49 C-155.50197653 73.07723358 -164.29224904 93.28286442 -178.96630859 113.33959961 C-184.39125234 120.78001641 -189.53430216 128.72338663 -189.48828125 138.234375 C-188.75744093 142.37385459 -186.71808833 145.68049988 -184.71435547 149.33959961 C-181.08085153 156.25655716 -180.03226306 163.29772946 -179 171 C-178.81824219 172.27746094 -178.63648438 173.55492187 -178.44921875 174.87109375 C-174.50282356 207.53146035 -182.44399249 240.88798497 -197 270 C-197.4228125 271.03382813 -197.845625 272.06765625 -198.28125 273.1328125 C-200.6432691 278.72418474 -203.72796643 283.95995168 -206.6875 289.25 C-207.27466797 290.31863281 -207.86183594 291.38726562 -208.46679688 292.48828125 C-212.50356143 299.71843845 -216.97984317 306.4159186 -222 313 C-222.66 312.67 -223.32 312.34 -224 312 C-223.50628906 311.10796875 -223.01257813 310.2159375 -222.50390625 309.296875 C-221.85653232 308.11471392 -221.20941011 306.93241496 -220.5625 305.75 C-220.23701172 305.16347656 -219.91152344 304.57695312 -219.57617188 303.97265625 C-217.97117383 301.0274021 -216.5836512 298.32105755 -216 295 C-215.34 295 -214.68 295 -214 295 C-213.896875 293.989375 -213.79375 292.97875 -213.6875 291.9375 C-213.10704422 288.61307144 -212.25588384 286.19291092 -210.8828125 283.16015625 C-209.01786092 278.59680128 -207.7500799 273.86023434 -206.53369141 269.08886719 C-206.17779123 267.69587455 -205.81024492 266.30580588 -205.43115234 264.91894531 C-202.04638264 252.21242222 -201.59967518 239.63177979 -201.5625 226.5625 C-201.55641724 225.74934326 -201.55033447 224.93618652 -201.54406738 224.09838867 C-201.47659305 210.30440929 -203.38412159 197.75380165 -208 184.6875 C-209.5 180.32421875 -209.5 180.32421875 -210.23974609 178.16625977 C-210.7530912 176.70353943 -211.28790146 175.24820167 -211.84228516 173.80053711 C-213.91869606 168.16535779 -214.47589215 163.17434769 -214.375 157.1875 C-214.35977295 155.86721802 -214.35977295 155.86721802 -214.34423828 154.52026367 C-214.18100335 147.64478311 -213.23815561 141.52380913 -211 135 C-210.66210449 133.98413818 -210.66210449 133.98413818 -210.31738281 132.94775391 C-207.91584067 125.74469713 -205.4764489 118.76548816 -202 112 C-201.25287605 110.2575908 -200.52411826 108.507209 -199.8125 106.75 C-197.28613105 100.60685361 -194.59266171 94.5462009 -191.85473633 88.49511719 C-189.98155016 84.32548349 -188.26153141 80.14061058 -186.69677734 75.84570312 C-186.07658086 74.20285611 -185.36817914 72.59392467 -184.6484375 70.9921875 C-180.46387679 60.748999 -180.42849654 50.53451806 -180.54052734 39.61083984 C-180.52191521 31.998478 -180.08951298 26.84670092 -175 21 C-174.08734375 19.90751953 -174.08734375 19.90751953 -173.15625 18.79296875 C-163.42736036 9.36237054 -153.9075895 8.68387125 -140.734375 8.83203125 C-137 9 -137 9 -134.1953125 9.5 C-129.50691877 10.23363618 -124.86310414 10.18432858 -120.125 10.1875 C-118.69220703 10.20586914 -118.69220703 10.20586914 -117.23046875 10.22460938 C-116.29074219 10.22654297 -115.35101563 10.22847656 -114.3828125 10.23046875 C-113.54121582 10.23457764 -112.69961914 10.23868652 -111.83251953 10.24291992 C-108.83781028 10.07406729 -108.83781028 10.07406729 -105.41113281 9.00048828 C-99.99223923 7.57426918 -94.60941162 7.7404638 -89.0390625 7.76171875 C-86.68619224 7.74628524 -84.33332756 7.72998062 -81.98046875 7.71289062 C-78.31676778 7.69654571 -74.65348 7.68744453 -70.98974609 7.69458008 C-57.65260198 7.70452103 -45.33738072 7.48446303 -32.61328125 3.19775391 C-21.94710578 -0.33793913 -11.09381808 -0.25633983 0 0 Z " fill="#3779FE" transform="translate(456,120)"/>
<path d="M0 0 C5.47380628 8.21070943 4.81339126 17.62172402 3.60546875 27.09375 C1.37738702 37.78854228 -2.60233573 48.14784293 -6.13330078 58.46435547 C-7.10410096 61.3045613 -8.05669941 64.15054797 -9 67 C-8.67 67 -8.34 67 -8 67 C-8.08825916 68.39692939 -8.19644834 69.79260452 -8.3125 71.1875 C-8.39951172 72.35345703 -8.39951172 72.35345703 -8.48828125 73.54296875 C-9.10742736 76.51581534 -10.41409975 78.41208202 -12 81 C-13.0523226 83.57599803 -14.05100605 86.1372732 -15 88.75 C-15.39191528 89.81516846 -15.39191528 89.81516846 -15.79174805 90.90185547 C-16.53503974 92.93205063 -17.26965086 94.96511794 -18 97 C-18.33644531 97.93585938 -18.67289063 98.87171875 -19.01953125 99.8359375 C-25.0964149 117.37807455 -22.32896057 133.75602518 -15.87207031 150.67626953 C-14.67037122 153.87833335 -13.63558652 157.10743691 -12.625 160.375 C-12.18027344 161.77878906 -12.18027344 161.77878906 -11.7265625 163.2109375 C-10.18778409 169.11786107 -9.81787868 175.03754017 -9.7265625 181.1171875 C-9.71407974 181.88337402 -9.70159698 182.64956055 -9.68873596 183.43896484 C-9.45152694 201.51654955 -10.11196107 218.45584935 -15 236 C-15.33620361 237.21695557 -15.33620361 237.21695557 -15.67919922 238.45849609 C-17.74714887 245.7658629 -20.20494201 252.93880087 -23 260 C-23.66 260 -24.32 260 -25 260 C-25.1546875 261.05960937 -25.1546875 261.05960937 -25.3125 262.140625 C-26.09631249 265.40057239 -27.36273971 267.82415522 -29 270.75 C-29.63164062 271.89082031 -30.26328125 273.03164063 -30.9140625 274.20703125 C-31.42308105 275.12476318 -31.42308105 275.12476318 -31.94238281 276.06103516 C-33.0395366 278.07248377 -34.09829772 280.10035662 -35.1484375 282.13671875 C-48.37045033 307.73921077 -48.37045033 307.73921077 -55 312 C-53.98375343 302.44728227 -50.46116338 294.44623422 -46 286 C-45.34 286 -44.68 286 -44 286 C-43.83951172 285.18015625 -43.83951172 285.18015625 -43.67578125 284.34375 C-42.8544775 281.49529768 -41.57768967 279.11848383 -40.1875 276.5 C-37.56876512 271.36877962 -35.65000035 266.28481516 -33.9296875 260.796875 C-33.09337877 258.280921 -32.12784166 255.95807066 -31 253.5625 C-26.31509493 243.29245319 -24.09445406 232.48112856 -22.38085938 221.39599609 C-22.10094772 219.63506472 -21.79658432 217.87797585 -21.47851562 216.12353516 C-20.10575285 208.17396852 -19.68797494 200.44215159 -19.73925781 192.37890625 C-19.75002955 190.36948766 -19.73926163 188.3609552 -19.7265625 186.3515625 C-19.74007349 179.51500318 -20.0734888 173.08602781 -21.55908203 166.40283203 C-22.04824854 163.73706416 -22.11168437 161.20709299 -22.125 158.5 C-22.63961301 150.82116665 -25.98094404 144.15359802 -29.08984375 137.22265625 C-29.4242749 136.47636963 -29.75870605 135.73008301 -30.10327148 134.96118164 C-30.77982288 133.48153629 -31.49114129 132.01771742 -32.21875 130.5625 C-36.60140778 116.18738248 -32.62063369 99.04796421 -26 86 C-25.01 85.01 -25.01 85.01 -24 84 C-23.52695899 82.39050681 -23.1199394 80.76127044 -22.75 79.125 C-20.87783456 71.87392268 -17.47744659 65.58282245 -13.93359375 59.02734375 C-10.24216598 51.99973021 -7.67030246 44.46096404 -5 37 C-4.64421875 36.01257813 -4.2884375 35.02515625 -3.921875 34.0078125 C-2.80985123 30.37959934 -2.04209685 26.73020099 -1.375 23 C-1.24311279 22.26467041 -1.11122559 21.52934082 -0.9753418 20.77172852 C0.18439085 13.80808497 0.30201388 7.05817614 0 0 Z " fill="#F6F8FC" transform="translate(265,155)"/>
<path d="M0 0 C5.88168299 2.96695909 9.3862391 7.04062516 12 13 C14.04002521 24.53716961 14.08509157 35.3177764 9 46 C8.71125 46.66644531 8.4225 47.33289063 8.125 48.01953125 C5.68230225 53.02488066 1.95579715 56.56287124 -3 59 C-9.54288367 59.51927648 -13.07813582 57.05520465 -18.01171875 52.9140625 C-20.5883194 50.43364144 -22.31396157 48.15215881 -24 45 C-24 44.34 -24 43.68 -24 43 C-24.66 43 -25.32 43 -26 43 C-30.18294729 35.67984225 -30.25418204 27.22930137 -28.30859375 19.1171875 C-25.49329899 11.41341022 -21.38152326 6.05546175 -14.1875 2.0625 C-9.4001538 -0.09072917 -5.18617504 -1.30822433 0 0 Z " fill="#3679FE" transform="translate(269,73)"/>
<path d="M0 0 C-0.34107802 2.87389816 -0.84102713 3.85838623 -3.0390625 5.81640625 C-17.3852292 15.50331941 -31.81800326 17.13830391 -48.66796875 18.53125 C-59.61508609 18.63024728 -59.61508609 18.63024728 -69 22 C-79.91911919 24.50438513 -90.90000469 25.31925028 -102.0625 25.9375 C-125.79522299 26.95424428 -125.79522299 26.95424428 -145.640625 38.76953125 C-147.40151467 41.65880712 -148.07196745 44.40075171 -148.875 47.6875 C-149.22127644 49.04071842 -149.5689871 50.39357046 -149.91796875 51.74609375 C-150.45300615 53.84902754 -150.98781372 55.95201868 -151.52197266 58.05517578 C-156.49078605 77.24681606 -165.31146376 94.98826383 -177.0625 110.9375 C-182.98430959 118.98577252 -186.93565666 127.46648738 -190 137 C-191.87368758 135.41954204 -192.89224593 134.48343717 -193.43359375 132.0546875 C-193.45477227 120.23707167 -186.18826372 110.29112678 -179.4152832 101.07055664 C-166.22718068 83.10129907 -157.78742852 62.81563041 -153.625 40.9375 C-151.92923098 33.31606621 -148.24898784 29.09256844 -141.7734375 24.921875 C-137.95381406 22.81468901 -134.11058742 21.76130361 -129.875 20.8125 C-129.18535156 20.64814453 -128.49570312 20.48378906 -127.78515625 20.31445312 C-125.86055182 19.85998152 -123.93039714 19.42920103 -122 19 C-121.20400391 18.82146484 -120.40800781 18.64292969 -119.58789062 18.45898438 C-116.96170528 17.99320811 -114.51671101 17.85833697 -111.8515625 17.82421875 C-95.7839573 17.48301981 -80.55320919 15.53048887 -64.86328125 12.10546875 C-58.21131129 10.67045291 -51.90591639 9.80495907 -45.125 9.5625 C-32.82392639 9.07705281 -21.54173281 7.20064672 -11.2265625 0.12890625 C-7.3112639 -1.85621883 -4.17128359 -0.94190275 0 0 Z " fill="#A4BFD1" transform="translate(459,127)"/>
<path d="M0 0 C0.60585938 0.25394531 1.21171875 0.50789062 1.8359375 0.76953125 C17.01440322 7.00437794 31.88529546 9.07277929 48.21032715 9.89138794 C51.9664549 10.07985096 55.72152575 10.28714722 59.4765625 10.49609375 C60.21938477 10.53721786 60.96220703 10.57834198 61.72753906 10.62071228 C67.7495369 10.96391953 73.74598378 11.48639767 79.75 12.0625 C87.01457214 12.75707407 94.2417982 13.08634018 101.53515625 13.20703125 C102.37881744 13.22236404 103.22247864 13.23769684 104.09170532 13.25349426 C108.30917572 13.32733635 112.52507985 13.3787794 116.74316406 13.39477539 C134.18082577 13.57071955 144.7810607 19.09867398 157.5 31.0625 C161.01431932 34.72355499 163.12987817 38.28404061 165 43 C164.67 43.66 164.34 44.32 164 45 C162.82739389 43.71372289 161.6620717 42.42080217 160.5 41.125 C159.8503125 40.40570313 159.200625 39.68640625 158.53125 38.9453125 C157 37 157 37 157 35 C156.14728516 34.60941406 156.14728516 34.60941406 155.27734375 34.2109375 C152.80930576 32.89860169 150.77374014 31.33283809 148.5625 29.625 C135.98379494 20.74591408 121.24657244 20.85614518 106.453125 21.09375 C90.53473688 21.21509914 74.79631559 20.00800038 58.94586182 18.68218994 C55.21066762 18.37228209 51.47443015 18.0754799 47.73828125 17.77734375 C40.49114988 17.19721118 33.24523559 16.60339776 26 16 C26 15.34 26 14.68 26 14 C25.00097656 14.04511719 24.00195312 14.09023437 22.97265625 14.13671875 C18.81560294 13.99365399 15.33111262 13.14756676 11.4375 11.8125 C10.80392578 11.61591797 10.17035156 11.41933594 9.51757812 11.21679688 C4.70691504 9.60663673 1.67256021 7.36698509 -2 4 C-1.34 2.68 -0.68 1.36 0 0 Z " fill="#A6C0D1" transform="translate(63,133)"/>
<path d="M0 0 C5.23581713 9.70763382 5.5364175 20.46266764 5.4375 31.25 C5.43343643 32.29247894 5.43343643 32.29247894 5.42929077 33.35601807 C5.35205759 46.51271935 3.93107597 59.15336137 1 72 C0.81808105 72.8053418 0.63616211 73.61068359 0.44873047 74.44042969 C-2.43636947 86.75947124 -6.99835747 98.40216003 -12 110 C-12.31308105 110.7307373 -12.62616211 111.46147461 -12.94873047 112.21435547 C-16.75320008 120.98135189 -21.17688237 129.28729198 -26.0625 137.5 C-26.54493164 138.31275391 -27.02736328 139.12550781 -27.52441406 139.96289062 C-30.92992879 145.56143742 -34.52899419 151.18451746 -39 156 C-39.66 156 -40.32 156 -41 156 C-38.1994969 148.76536699 -35.08573515 141.87159555 -31.05078125 135.23828125 C-29.85397868 132.98836191 -29.85397868 132.98836191 -29.65234375 130.234375 C-28.76514884 125.83558827 -26.62645634 122.69588491 -24.25 118.9375 C-20.54458639 112.87177071 -17.4867217 106.96002627 -15.1328125 100.22265625 C-14.18064261 97.51389709 -13.15888411 94.86513544 -12.0859375 92.203125 C-0.02416509 62.1775471 2.79828962 32.08039173 0 0 Z " fill="#A6C1D3" transform="translate(276,284)"/>
<path d="M0 0 C12.96040916 19.44061374 7.68226504 54.42397303 3.65478516 75.79296875 C1.31237891 87.26569377 -1.44945791 98.86229788 -6.72265625 109.375 C-8.31967282 112.65694232 -9.61932071 116.0374714 -10.9375 119.4375 C-14.70736182 128.9801499 -19.15447819 137.88917524 -24.625 146.5625 C-24.99729736 147.15877197 -25.36959473 147.75504395 -25.75317383 148.36938477 C-27.82436245 151.5693919 -29.77081317 153.94705543 -33 156 C-31.98375343 146.44728227 -28.46116338 138.44623422 -24 130 C-23.34 130 -22.68 130 -22 130 C-21.83951172 129.18015625 -21.83951172 129.18015625 -21.67578125 128.34375 C-20.8544775 125.49529768 -19.57768967 123.11848383 -18.1875 120.5 C-15.56876512 115.36877962 -13.65000035 110.28481516 -11.9296875 104.796875 C-11.09337877 102.280921 -10.12784166 99.95807066 -9 97.5625 C-4.31509493 87.29245319 -2.09445406 76.48112856 -0.38085938 65.39599609 C-0.10094772 63.63506472 0.20341568 61.87797585 0.52148438 60.12353516 C1.89424715 52.17396852 2.31202506 44.44215159 2.26074219 36.37890625 C2.24997045 34.36948766 2.26073837 32.3609552 2.2734375 30.3515625 C2.25987648 23.4896858 1.91569076 17.03442096 0.44091797 10.32348633 C-0.22028774 6.83915923 -0.13342422 3.53574192 0 0 Z " fill="#A4BFD2" transform="translate(243,311)"/>
<path d="M0 0 C5.47380628 8.21070943 4.81339126 17.62172402 3.60546875 27.09375 C2.90515001 30.45527996 2.00568487 33.72028964 1 37 C0.74186523 37.85094238 0.48373047 38.70188477 0.21777344 39.57861328 C-4.19017296 53.88857439 -9.55644646 67.49433664 -16 81 C-25.32756289 99.33827016 -25.32756289 99.33827016 -29.09765625 119.203125 C-29.09443359 120.1828125 -29.09121094 121.1625 -29.08789062 122.171875 C-29.07951172 123.18765625 -29.07113281 124.2034375 -29.0625 125.25 C-29.05798828 126.28125 -29.05347656 127.3125 -29.04882812 128.375 C-29.03706088 130.91672573 -29.02062011 133.45833319 -29 136 C-34.88150667 127.17774 -34.20454484 116.23780271 -33 106 C-29.22822374 89.22822374 -29.22822374 89.22822374 -24 84 C-23.52695899 82.39050681 -23.1199394 80.76127044 -22.75 79.125 C-20.87783456 71.87392268 -17.47744659 65.58282245 -13.93359375 59.02734375 C-10.24216598 51.99973021 -7.67030246 44.46096404 -5 37 C-4.64421875 36.01257813 -4.2884375 35.02515625 -3.921875 34.0078125 C-2.80985123 30.37959934 -2.04209685 26.73020099 -1.375 23 C-1.24311279 22.26467041 -1.11122559 21.52934082 -0.9753418 20.77172852 C0.18439085 13.80808497 0.30201388 7.05817614 0 0 Z " fill="#A3BED2" transform="translate(265,155)"/>
<path d="M0 0 C5.86663738 7.65213572 4.50440156 16.65794199 4 26 C2.79114612 35.0719493 -2.31966242 42.03655953 -8.4375 48.625 C-12.11883304 50.60034943 -15.01956857 51.13033157 -19 50 C-26.61732586 45.47497414 -34.62871868 38.21086902 -36.9375 29.4375 C-36.958125 28.633125 -36.97875 27.82875 -37 27 C-33 32 -33 32 -31.125 34.5625 C-27.64731417 38.55161022 -24.18997969 41.02431591 -18.9375 41.875 C-15.19039237 41.9939558 -13.17896511 41.92664552 -10 40 C-9.67 39.01 -9.34 38.02 -9 37 C-8.34 37 -7.68 37 -7 37 C-6.7525 36.360625 -6.505 35.72125 -6.25 35.0625 C-4.88834582 31.72644725 -3.40601844 28.45763261 -1.90234375 25.18359375 C-0.4005264 21.54932578 0.12419385 18.38068929 0.09765625 14.453125 C0.09443359 13.60878906 0.09121094 12.76445313 0.08789062 11.89453125 C0.07951172 11.02183594 0.07113281 10.14914063 0.0625 9.25 C0.05798828 8.36183594 0.05347656 7.47367187 0.04882812 6.55859375 C0.037074 4.37232671 0.02064249 2.18619821 0 0 Z " fill="#A5C0D2" transform="translate(281,89)"/>
<path d="M0 0 C5.95271078 8.92906618 5.16326933 20.87391479 5.125 31.1875 C5.12886719 32.24130859 5.13273438 33.29511719 5.13671875 34.38085938 C5.13044275 39.36086407 5.06447095 44.10850253 4 49 C3.67 49 3.34 49 3 49 C2.970271 47.72322388 2.970271 47.72322388 2.93994141 46.4206543 C2.8610223 43.20916976 2.77431045 39.99800853 2.68261719 36.78686523 C2.64474843 35.40706245 2.6098292 34.02717498 2.578125 32.6472168 C2.40162209 25.05483388 2.03683855 17.74807164 0.42773438 10.3125 C-0.21579869 6.83330752 -0.13312954 3.52793291 0 0 Z " fill="#91B2D6" transform="translate(243,311)"/>
<path d="M0 0 C1.32 0 2.64 0 4 0 C3.11223998 3.69900008 2.05418136 7.34550461 1 11 C0.34 11 -0.32 11 -1 11 C-1.09152344 11.68449219 -1.18304688 12.36898438 -1.27734375 13.07421875 C-2.17303641 16.70056363 -3.75026282 19.55047308 -5.5625 22.8125 C-6.0565332 23.7087207 -6.0565332 23.7087207 -6.56054688 24.62304688 C-7.36773267 26.08533998 -8.18304917 27.5431399 -9 29 C-10 27 -10 27 -9.51855469 25.26342773 C-9.23915039 24.57708252 -8.95974609 23.8907373 -8.671875 23.18359375 C-8.36636719 22.41853516 -8.06085938 21.65347656 -7.74609375 20.86523438 C-7.41738281 20.06408203 -7.08867187 19.26292969 -6.75 18.4375 C-4.28652922 12.34978722 -2.00406993 6.25572109 0 0 Z " fill="#D8E3F1" transform="translate(241,404)"/>
<path d="M0 0 C1.32 0.33 2.64 0.66 4 1 C2.68018255 5.68187876 0.80204328 9.00374921 -2.125 12.875 C-2.84945312 13.84179688 -3.57390625 14.80859375 -4.3203125 15.8046875 C-4.87460938 16.52914063 -5.42890625 17.25359375 -6 18 C-6.66 17.67 -7.32 17.34 -8 17 C-7.50628906 16.10796875 -7.01257813 15.2159375 -6.50390625 14.296875 C-5.85653232 13.11471392 -5.20941011 11.93241496 -4.5625 10.75 C-4.07426758 9.87021484 -4.07426758 9.87021484 -3.57617188 8.97265625 C-1.97117383 6.0274021 -0.5836512 3.32105755 0 0 Z " fill="#5F90FD" transform="translate(240,415)"/>
<path d="M0 0 C1 3 1 3 -0.14453125 5.77734375 C-0.69496094 6.82019531 -1.24539062 7.86304688 -1.8125 8.9375 C-2.35519531 9.97777344 -2.89789063 11.01804687 -3.45703125 12.08984375 C-3.96621094 13.05019531 -4.47539062 14.01054687 -5 15 C-5.67103464 16.33114039 -6.33978226 17.66346165 -7 19 C-7.33 18.01 -7.66 17.02 -8 16 C-8.99 16 -9.98 16 -11 16 C-10.54109375 15.34773438 -10.0821875 14.69546875 -9.609375 14.0234375 C-6.3516602 9.38324709 -3.11614247 4.73653655 0 0 Z " fill="#E5ECF6" transform="translate(246,414)"/>
<path d="M0 0 C3.18532949 2.81542026 5.34189219 6.33250047 7.625 9.875 C8.03234375 10.48730469 8.4396875 11.09960938 8.859375 11.73046875 C11.05204632 15.12112274 12.55470463 17.96163168 13 22 C9.9130564 19.30013396 8.00523723 15.92464868 5.9375 12.4375 C3.32214658 7.95979344 3.32214658 7.95979344 0 4 C0 2.68 0 1.36 0 0 Z " fill="#9AB8DA" transform="translate(205,326)"/>
<path d="M0 0 C1.32 0 2.64 0 4 0 C3.67925956 1.33641852 3.34135927 2.66869885 3 4 C2.566875 5.8253125 2.566875 5.8253125 2.125 7.6875 C1.75375 8.780625 1.3825 9.87375 1 11 C0.01 11.33 -0.98 11.66 -2 12 C-1.85831863 10.56208484 -1.71148957 9.1246763 -1.5625 7.6875 C-1.48128906 6.88699219 -1.40007812 6.08648437 -1.31640625 5.26171875 C-1 3 -1 3 0 0 Z " fill="#E5ECF8" transform="translate(241,404)"/>
<path d="M0 0 C1.32 0.33 2.64 0.66 4 1 C2.6062718 5.43458973 0.39417765 7.87378374 -3 11 C-2.69078116 9.54096742 -2.37751201 8.08279278 -2.0625 6.625 C-1.88847656 5.81289063 -1.71445313 5.00078125 -1.53515625 4.1640625 C-1 2 -1 2 0 0 Z " fill="#5B90FD" transform="translate(210,449)"/>
<path d="M0 0 C1 3 1 3 0.328125 4.7890625 C-0.02765625 5.39492188 -0.3834375 6.00078125 -0.75 6.625 C-1.09546875 7.23601562 -1.4409375 7.84703125 -1.796875 8.4765625 C-3 10 -3 10 -6 11 C-4.54955729 6.89041233 -2.48889248 3.56741255 0 0 Z " fill="#CCDAF0" transform="translate(246,414)"/>
<path d="M0 0 C0.66 0.33 1.32 0.66 2 1 C0.90220176 2.15193623 -0.20349446 3.29634937 -1.3125 4.4375 C-1.92738281 5.07558594 -2.54226562 5.71367188 -3.17578125 6.37109375 C-5 8 -5 8 -8 9 C-6.4169423 4.7257442 -3.49431596 2.73468206 0 0 Z " fill="#5B90FC" transform="translate(253,76)"/>
<path d="M0 0 C0.33 0.99 0.66 1.98 1 3 C-0.8125 5.6875 -0.8125 5.6875 -3 8 C-3.66 8 -4.32 8 -5 8 C-3.8141763 4.62496331 -2.72426311 2.35277269 0 0 Z " fill="#B5CBD6" transform="translate(240,432)"/>
</svg>
